<?xml version="1.0"?>
<svg width="500" height="300" xmlns="http://www.w3.org/2000/svg" xmlns:svg="http://www.w3.org/2000/svg">
 <!-- Created with SVG-edit - https://github.com/SVG-Edit/svgedit-->
 <title>post1</title>
 <g class="layer">
  <title>Layer 1</title>
  <rect fill="#ffffff" height="300" id="svg_4" stroke="#000000" stroke-width="0" width="500" x="0" y="0"/>
  <rect fill="#ffffff" height="200" id="svg_1" rx="5" ry="5" stroke="#212121" width="40" x="100" y="40"/>
  <rect fill="#ffffff" height="200" id="svg_6" rx="5" ry="5" stroke="#212121" width="40" x="140" y="40"/>
  <rect fill="#ffffff" height="200" id="svg_7" rx="5" ry="5" stroke="#212121" width="40" x="180" y="40"/>
  <rect fill="#ffffff" height="200" id="svg_8" rx="5" ry="5" stroke="#212121" width="40" x="220" y="40"/>
  <rect fill="#ffffff" height="200" id="svg_9" rx="5" ry="5" stroke="#212121" width="40" x="260" y="40"/>
  <rect fill="#ffffff" height="200" id="svg_14" rx="5" ry="5" stroke="#212121" width="40" x="300" y="40"/>
  <rect fill="#ffffff" height="200" id="svg_13" rx="5" ry="5" stroke="#212121" width="40" x="340" y="40">F♯ G♭F♯ G♭</rect>
  <rect fill="#000000" height="100" id="svg_15" rx="5" ry="5" stroke="#212121" width="20" x="130" y="40"/>
  <rect fill="#000000" height="100" id="svg_16" rx="5" ry="5" stroke="#212121" width="20" x="170" y="40"/>
  <rect fill="#000000" height="100" id="svg_17" rx="5" ry="5" stroke="#212121" width="20" x="250" y="40"/>
  <rect fill="#000000" height="100" id="svg_18" rx="5" ry="5" stroke="#212121" width="20" x="290" y="40"/>
  <rect fill="#000000" height="100" id="svg_19" rx="5" ry="5" stroke="#212121" width="20" x="330" y="40"/>
  <text fill="#000000" font-family="Fantasy" font-size="24" id="svg_56" stroke="#000000" stroke-width="0" text-anchor="middle" x="120" xml:space="preserve" y="270">C</text>
  <text fill="#000000" font-family="Fantasy" font-size="24" id="svg_57" stroke="#000000" stroke-width="0" text-anchor="middle" x="160" xml:space="preserve" y="270">D</text>
  <text fill="#000000" font-family="Fantasy" font-size="24" id="svg_58" stroke="#000000" stroke-width="0" text-anchor="middle" x="200" xml:space="preserve" y="270">E</text>
  <text fill="#000000" font-family="Fantasy" font-size="24" id="svg_59" stroke="#000000" stroke-width="0" text-anchor="middle" x="240" xml:space="preserve" y="270">F</text>
  <text fill="#000000" font-family="Fantasy" font-size="24" id="svg_60" stroke="#000000" stroke-width="0" text-anchor="middle" x="280" xml:space="preserve" y="270">G</text>
  <text fill="#000000" font-family="Fantasy" font-size="24" id="svg_61" stroke="#000000" stroke-width="0" text-anchor="middle" x="320" xml:space="preserve" y="270">A</text>
  <text fill="#000000" font-family="Fantasy" font-size="24" id="svg_62" stroke="#000000" stroke-width="0" text-anchor="middle" x="360" xml:space="preserve" y="270">B</text>
  <text fill="#000000" font-family="Fantasy" font-size="12" id="svg_63" stroke="#000000" stroke-width="0" text-anchor="middle" x="140" xml:space="preserve" y="30">C♯ D♭</text>
  <text fill="#000000" font-family="Fantasy" font-size="12" id="svg_64" stroke="#000000" stroke-width="0" text-anchor="middle" x="180" xml:space="preserve" y="30">D♯ E♭</text>
  <text fill="#000000" font-family="Fantasy" font-size="12" id="svg_65" stroke="#000000" stroke-width="0" text-anchor="middle" x="260" xml:space="preserve" y="30">F♯ G♭</text>
  <text fill="#000000" font-family="Fantasy" font-size="12" id="svg_2" stroke="#000000" stroke-width="0" text-anchor="middle" x="300" xml:space="preserve" y="30">G♯ A♭</text>
  <text fill="#000000" font-family="Fantasy" font-size="12" id="svg_3" stroke="#000000" stroke-width="0" text-anchor="middle" x="340" xml:space="preserve" y="30">A♯ B♭</text>
 </g>
</svg>