<?xml version="1.0"?>
<svg width="500" height="300" xmlns="http://www.w3.org/2000/svg" xmlns:svg="http://www.w3.org/2000/svg">
 <!-- Created with SVG-edit - https://github.com/SVG-Edit/svgedit-->
 <title>post1</title>
 <g class="layer">
  <title>Layer 1</title>
  <rect fill="#ffffff" height="300" id="svg_4" stroke="#000000" stroke-width="0" transform="matrix(1 0 0 1 0 0)" width="500"/>
  <rect fill="#ffffff" height="200" id="svg_1" rx="5" ry="5" stroke="#212121" width="40" x="110" y="50"/>
  <rect fill="#ffffff" height="200" id="svg_6" rx="5" ry="5" stroke="#212121" width="40" x="150" y="50"/>
  <rect fill="#ffffff" height="200" id="svg_7" rx="5" ry="5" stroke="#212121" width="40" x="190" y="50"/>
  <rect fill="#ffffff" height="200" id="svg_8" rx="5" ry="5" stroke="#212121" width="40" x="230" y="50"/>
  <rect fill="#ffffff" height="200" id="svg_9" rx="5" ry="5" stroke="#212121" width="40" x="270" y="50"/>
  <rect fill="#ffffff" height="200" id="svg_14" rx="5" ry="5" stroke="#212121" width="40" x="310" y="50"/>
  <rect fill="#ffffff" height="200" id="svg_13" rx="5" ry="5" stroke="#212121" width="40" x="350" y="50">F♯ G♭F♯ G♭</rect>
  <rect fill="#000000" height="100" id="svg_15" rx="5" ry="5" stroke="#212121" width="20" x="140" y="50"/>
  <rect fill="#000000" height="100" id="svg_16" rx="5" ry="5" stroke="#212121" width="20" x="180" y="50"/>
  <rect fill="#000000" height="100" id="svg_17" rx="5" ry="5" stroke="#212121" width="20" x="260" y="50"/>
  <rect fill="#000000" height="100" id="svg_18" rx="5" ry="5" stroke="#212121" width="20" x="300" y="50"/>
  <rect fill="#000000" height="100" id="svg_19" rx="5" ry="5" stroke="#212121" width="20" x="340" y="50"/>
  <path d="m171.4,250.88l0,10l40,0l0,-10" fill="#ffffff" id="svg_41" stroke="#000000" stroke-linecap="round" stroke-linejoin="round" transform="matrix(1 0 0 1 0 0)"/>
  <text fill="#000000" font-family="Sans-serif" font-size="24" id="svg_5" stroke="#000000" stroke-linecap="round" stroke-linejoin="round" stroke-width="0" text-anchor="middle" transform="matrix(1 0 0 1 0 0)" x="190" xml:space="preserve" y="290">tone</text>
  <path d="m213.73,48.73l0,-10l56.69,0l0,10" fill="#ffffff" id="svg_3" stroke="#000000" stroke-linecap="round" stroke-linejoin="round"/>
  <text fill="#000000" font-family="Sans-serif" font-size="24" id="svg_2" stroke="#000000" stroke-linecap="round" stroke-linejoin="round" stroke-width="0" text-anchor="middle" transform="matrix(1 0 0 1 0 0) matrix(1 0 0 1 0 0)" x="240" xml:space="preserve" y="30">tone</text>
 </g>
</svg>