<?xml version="1.0"?>
<svg width="1000" height="300" xmlns="http://www.w3.org/2000/svg" xmlns:svg="http://www.w3.org/2000/svg">
 <!-- Created with SVG-edit - https://github.com/SVG-Edit/svgedit-->
 <title>post1</title>
 <g class="layer">
  <title>Layer 1</title>
  <rect fill="#ffffff" height="300" id="svg_4" stroke="#000000" stroke-width="0" width="1000" x="0" y="0"/>
  <rect fill="#ffffff" height="200" id="svg_1" rx="5" ry="5" stroke="#212121" width="40" x="80" y="30"/>
  <rect fill="#ffffff" height="200" id="svg_6" rx="5" ry="5" stroke="#212121" width="40" x="120" y="30"/>
  <rect fill="#ffffff" height="200" id="svg_7" rx="5" ry="5" stroke="#212121" width="40" x="160" y="30"/>
  <rect fill="#ffffff" height="200" id="svg_8" rx="5" ry="5" stroke="#212121" width="40" x="200" y="30"/>
  <rect fill="#ffffff" height="200" id="svg_9" rx="5" ry="5" stroke="#212121" width="40" x="240" y="30"/>
  <rect fill="#ffffff" height="200" id="svg_14" rx="5" ry="5" stroke="#212121" width="40" x="280" y="30"/>
  <rect fill="#ffffff" height="200" id="svg_13" rx="5" ry="5" stroke="#212121" width="40" x="320" y="30">F♯ G♭F♯ G♭</rect>
  <rect fill="#000000" height="100" id="svg_15" rx="5" ry="5" stroke="#212121" width="20" x="110" y="30"/>
  <rect fill="#000000" height="100" id="svg_16" rx="5" ry="5" stroke="#212121" width="20" x="150" y="30"/>
  <rect fill="#000000" height="100" id="svg_17" rx="5" ry="5" stroke="#212121" width="20" x="230" y="30"/>
  <rect fill="#000000" height="100" id="svg_18" rx="5" ry="5" stroke="#212121" width="20" x="270" y="30"/>
  <rect fill="#000000" height="100" id="svg_19" rx="5" ry="5" stroke="#212121" width="20" x="310" y="30"/>
  <rect fill="#ffffff" height="200" id="svg_28" rx="5" ry="5" stroke="#212121" width="40" x="360" y="30"/>
  <rect fill="#ffffff" height="200" id="svg_27" rx="5" ry="5" stroke="#212121" width="40" x="400" y="30"/>
  <rect fill="#ffffff" height="200" id="svg_26" rx="5" ry="5" stroke="#212121" width="40" x="440" y="30"/>
  <rect fill="#ffffff" height="200" id="svg_25" rx="5" ry="5" stroke="#212121" width="40" x="480" y="30"/>
  <rect fill="#ffffff" height="200" id="svg_24" rx="5" ry="5" stroke="#212121" width="40" x="520" y="30"/>
  <rect fill="#ffffff" height="200" id="svg_23" rx="5" ry="5" stroke="#212121" width="40" x="560" y="30"/>
  <rect fill="#ffffff" height="200" id="svg_22" rx="5" ry="5" stroke="#212121" width="40" x="600" y="30">F♯ G♭F♯ G♭</rect>
  <rect fill="#000000" height="100" id="svg_21" rx="5" ry="5" stroke="#212121" width="20" x="390" y="30"/>
  <rect fill="#000000" height="100" id="svg_20" rx="5" ry="5" stroke="#212121" width="20" x="430" y="30"/>
  <rect fill="#000000" height="100" id="svg_12" rx="5" ry="5" stroke="#212121" width="20" x="510" y="30"/>
  <rect fill="#000000" height="100" id="svg_11" rx="5" ry="5" stroke="#212121" width="20" x="550" y="30"/>
  <rect fill="#000000" height="100" id="svg_10" rx="5" ry="5" stroke="#212121" width="20" x="590" y="30"/>
  <rect fill="#ffffff" height="200" id="svg_40" rx="5" ry="5" stroke="#212121" width="40" x="640" y="30"/>
  <rect fill="#ffffff" height="200" id="svg_39" rx="5" ry="5" stroke="#212121" width="40" x="680" y="30"/>
  <rect fill="#ffffff" height="200" id="svg_38" rx="5" ry="5" stroke="#212121" width="40" x="720" y="30"/>
  <rect fill="#ffffff" height="200" id="svg_37" rx="5" ry="5" stroke="#212121" width="40" x="760" y="30"/>
  <rect fill="#ffffff" height="200" id="svg_36" rx="5" ry="5" stroke="#212121" width="40" x="800" y="30"/>
  <rect fill="#ffffff" height="200" id="svg_35" rx="5" ry="5" stroke="#212121" width="40" x="840" y="30"/>
  <rect fill="#ffffff" height="200" id="svg_34" rx="5" ry="5" stroke="#212121" width="40" x="880" y="30">F♯ G♭F♯ G♭</rect>
  <rect fill="#000000" height="100" id="svg_33" rx="5" ry="5" stroke="#212121" width="20" x="670" y="30"/>
  <rect fill="#000000" height="100" id="svg_32" rx="5" ry="5" stroke="#212121" width="20" x="710" y="30"/>
  <rect fill="#000000" height="100" id="svg_31" rx="5" ry="5" stroke="#212121" width="20" x="790" y="30"/>
  <rect fill="#000000" height="100" id="svg_30" rx="5" ry="5" stroke="#212121" width="20" x="830" y="30"/>
  <rect fill="#000000" height="100" id="svg_29" rx="5" ry="5" stroke="#212121" width="20" x="870" y="30"/>
  <path d="m379,243.5l0,20l240,0l0,-20" fill="#ffffff" id="svg_3" stroke="#000000" stroke-linecap="round" stroke-linejoin="round"/>
  <text fill="#000000" font-family="Sans-serif" font-size="24" id="svg_2" stroke="#000000" stroke-linecap="round" stroke-linejoin="round" stroke-width="0" style="cursor: move;" text-anchor="middle" transform="matrix(1 0 0 1 0 0)" x="500" xml:space="preserve" y="290">Octave 2</text>
  <path d="m100,243.75l0,20l240,0l0,-20" fill="#ffffff" id="svg_41" stroke="#000000" stroke-linecap="round" stroke-linejoin="round" transform="matrix(1 0 0 1 0 0)"/>
  <text fill="#000000" font-family="Sans-serif" font-size="24" id="svg_5" stroke="#000000" stroke-linecap="round" stroke-linejoin="round" stroke-width="0" text-anchor="middle" transform="matrix(1 0 0 1 0 0)" x="220" xml:space="preserve" y="290">Octave 1</text>
  <path d="m660,243.75l0,20l240,0l0,-20" fill="#ffffff" id="svg_43" stroke="#000000" stroke-linecap="round" stroke-linejoin="round" transform="matrix(1 0 0 1 0 0)"/>
  <text fill="#000000" font-family="Sans-serif" font-size="24" id="svg_42" stroke="#000000" stroke-linecap="round" stroke-linejoin="round" stroke-width="0" style="cursor: move;" text-anchor="middle" transform="matrix(1 0 0 1 0 0)" x="780" xml:space="preserve" y="290">Octave 3</text>
 </g>
</svg>